<mxfile host="app.diagrams.net" modified="2024-06-09T11:47:26.695Z" agent="Mozilla/5.0 (Windows NT 10.0; Win64; x64) AppleWebKit/537.36 (KHTML, like Gecko) Chrome/123.0.0.0 Safari/537.36 OPR/109.0.0.0 (Edition std-1)" etag="BzRR2m2s-KZRkMtTgeFT" version="24.5.2" type="google">
  <diagram name="Page-1" id="1pamAXICzkh6juV3qlzj">
    <mxGraphModel grid="1" page="1" gridSize="10" guides="1" tooltips="1" connect="1" arrows="1" fold="1" pageScale="1" pageWidth="560" pageHeight="390" math="0" shadow="0">
      <root>
        <mxCell id="0" />
        <mxCell id="1" parent="0" />
        <mxCell id="tBcn2T057OgopCDM5U5c-1" value="Użytkownik" style="shape=umlActor;verticalLabelPosition=bottom;verticalAlign=top;html=1;" vertex="1" parent="1">
          <mxGeometry x="20" y="165" width="30" height="60" as="geometry" />
        </mxCell>
        <mxCell id="tBcn2T057OgopCDM5U5c-3" value="" style="rounded=0;whiteSpace=wrap;html=1;" vertex="1" parent="1">
          <mxGeometry x="80" y="10" width="470" height="370" as="geometry" />
        </mxCell>
        <mxCell id="tBcn2T057OgopCDM5U5c-4" value="widok symulacji 2D" style="ellipse;whiteSpace=wrap;html=1;" vertex="1" parent="1">
          <mxGeometry x="140" y="50" width="140" height="70" as="geometry" />
        </mxCell>
        <mxCell id="tBcn2T057OgopCDM5U5c-5" value="widok symulacji 3D" style="ellipse;whiteSpace=wrap;html=1;" vertex="1" parent="1">
          <mxGeometry x="140" y="260" width="140" height="70" as="geometry" />
        </mxCell>
        <mxCell id="tBcn2T057OgopCDM5U5c-7" value="symulacja 2D" style="ellipse;whiteSpace=wrap;html=1;" vertex="1" parent="1">
          <mxGeometry x="360" y="50" width="140" height="70" as="geometry" />
        </mxCell>
        <mxCell id="tBcn2T057OgopCDM5U5c-8" value="symulacja 3D" style="ellipse;whiteSpace=wrap;html=1;" vertex="1" parent="1">
          <mxGeometry x="360" y="260" width="140" height="70" as="geometry" />
        </mxCell>
        <mxCell id="tBcn2T057OgopCDM5U5c-11" value="extend" style="html=1;verticalAlign=bottom;endArrow=open;dashed=1;endSize=8;curved=0;rounded=0;entryX=1;entryY=0.5;entryDx=0;entryDy=0;exitX=0;exitY=0.5;exitDx=0;exitDy=0;" edge="1" parent="1" source="tBcn2T057OgopCDM5U5c-8" target="tBcn2T057OgopCDM5U5c-5">
          <mxGeometry relative="1" as="geometry">
            <mxPoint x="360" y="220" as="sourcePoint" />
            <mxPoint x="280" y="220" as="targetPoint" />
          </mxGeometry>
        </mxCell>
        <mxCell id="tBcn2T057OgopCDM5U5c-13" value="extend" style="html=1;verticalAlign=bottom;endArrow=open;dashed=1;endSize=8;curved=0;rounded=0;entryX=1;entryY=0.5;entryDx=0;entryDy=0;exitX=0;exitY=0.5;exitDx=0;exitDy=0;" edge="1" parent="1" source="tBcn2T057OgopCDM5U5c-7" target="tBcn2T057OgopCDM5U5c-4">
          <mxGeometry relative="1" as="geometry">
            <mxPoint x="356" y="120" as="sourcePoint" />
            <mxPoint x="274" y="117" as="targetPoint" />
          </mxGeometry>
        </mxCell>
        <mxCell id="tBcn2T057OgopCDM5U5c-14" value="" style="endArrow=none;html=1;rounded=0;exitX=1;exitY=0.3333333333333333;exitDx=0;exitDy=0;exitPerimeter=0;entryX=0;entryY=0.5;entryDx=0;entryDy=0;" edge="1" parent="1" source="tBcn2T057OgopCDM5U5c-1" target="tBcn2T057OgopCDM5U5c-4">
          <mxGeometry width="50" height="50" relative="1" as="geometry">
            <mxPoint y="260" as="sourcePoint" />
            <mxPoint x="50" y="210" as="targetPoint" />
          </mxGeometry>
        </mxCell>
        <mxCell id="tBcn2T057OgopCDM5U5c-15" value="" style="endArrow=none;html=1;rounded=0;exitX=1;exitY=0.3333333333333333;exitDx=0;exitDy=0;exitPerimeter=0;entryX=0;entryY=0.5;entryDx=0;entryDy=0;" edge="1" parent="1" source="tBcn2T057OgopCDM5U5c-1" target="tBcn2T057OgopCDM5U5c-5">
          <mxGeometry width="50" height="50" relative="1" as="geometry">
            <mxPoint x="-20" y="290" as="sourcePoint" />
            <mxPoint x="30" y="240" as="targetPoint" />
          </mxGeometry>
        </mxCell>
        <mxCell id="tBcn2T057OgopCDM5U5c-17" value="widok pełno ekranowy" style="ellipse;whiteSpace=wrap;html=1;" vertex="1" parent="1">
          <mxGeometry x="280" y="160" width="140" height="70" as="geometry" />
        </mxCell>
        <mxCell id="tBcn2T057OgopCDM5U5c-18" value="extend" style="html=1;verticalAlign=bottom;endArrow=open;dashed=1;endSize=8;curved=0;rounded=0;entryX=0.827;entryY=0.891;entryDx=0;entryDy=0;entryPerimeter=0;exitX=0.101;exitY=0.189;exitDx=0;exitDy=0;exitPerimeter=0;" edge="1" parent="1" source="tBcn2T057OgopCDM5U5c-17" target="tBcn2T057OgopCDM5U5c-4">
          <mxGeometry relative="1" as="geometry">
            <mxPoint x="360" y="400" as="sourcePoint" />
            <mxPoint x="280" y="400" as="targetPoint" />
          </mxGeometry>
        </mxCell>
        <mxCell id="tBcn2T057OgopCDM5U5c-19" value="extend" style="html=1;verticalAlign=bottom;endArrow=open;dashed=1;endSize=8;curved=0;rounded=0;entryX=1;entryY=0;entryDx=0;entryDy=0;exitX=0.09;exitY=0.817;exitDx=0;exitDy=0;exitPerimeter=0;" edge="1" parent="1" source="tBcn2T057OgopCDM5U5c-17" target="tBcn2T057OgopCDM5U5c-5">
          <mxGeometry relative="1" as="geometry">
            <mxPoint x="304" y="183" as="sourcePoint" />
            <mxPoint x="266" y="122" as="targetPoint" />
          </mxGeometry>
        </mxCell>
      </root>
    </mxGraphModel>
  </diagram>
</mxfile>
